<mxfile host="app.diagrams.net" agent="Mozilla/5.0 (Windows NT 10.0; Win64; x64) AppleWebKit/537.36 (KHTML, like Gecko) Chrome/140.0.0.0 Safari/537.36" version="28.2.5">
  <diagram name="第 1 页" id="3WWOE11-BDp4tkuiVS4S">
    <mxGraphModel dx="1632" dy="1237" grid="1" gridSize="10" guides="1" tooltips="1" connect="1" arrows="1" fold="1" page="1" pageScale="1" pageWidth="827" pageHeight="1169" math="0" shadow="0">
      <root>
        <mxCell id="0" />
        <mxCell id="1" parent="0" />
        <mxCell id="wOgJz4khvBAr9w2sD9WK-1" value="" style="rounded=0;whiteSpace=wrap;html=1;" vertex="1" parent="1">
          <mxGeometry x="80" y="50" width="510" height="650" as="geometry" />
        </mxCell>
        <mxCell id="wOgJz4khvBAr9w2sD9WK-2" value="&lt;font style=&quot;font-size: 24px;&quot;&gt;test.py&lt;/font&gt;" style="text;html=1;align=center;verticalAlign=middle;whiteSpace=wrap;rounded=0;" vertex="1" parent="1">
          <mxGeometry x="320" y="60" width="60" height="30" as="geometry" />
        </mxCell>
        <mxCell id="wOgJz4khvBAr9w2sD9WK-3" value="" style="rounded=1;whiteSpace=wrap;html=1;" vertex="1" parent="1">
          <mxGeometry x="90" y="110" width="490" height="60" as="geometry" />
        </mxCell>
        <mxCell id="wOgJz4khvBAr9w2sD9WK-4" value="&lt;span style=&quot;font-size: 24px;&quot;&gt;模块注释&lt;/span&gt;" style="text;html=1;align=center;verticalAlign=middle;whiteSpace=wrap;rounded=0;" vertex="1" parent="1">
          <mxGeometry x="275" y="125" width="120" height="30" as="geometry" />
        </mxCell>
        <mxCell id="wOgJz4khvBAr9w2sD9WK-5" value="" style="rounded=1;whiteSpace=wrap;html=1;" vertex="1" parent="1">
          <mxGeometry x="90" y="200" width="490" height="200" as="geometry" />
        </mxCell>
        <mxCell id="wOgJz4khvBAr9w2sD9WK-6" value="&lt;span style=&quot;font-size: 24px;&quot;&gt;导入&lt;/span&gt;&lt;div&gt;&lt;span style=&quot;font-size: 24px;&quot;&gt;1.标准库导入&lt;/span&gt;&lt;/div&gt;&lt;div&gt;&lt;span style=&quot;font-size: 24px;&quot;&gt;2.相关的第三方库导入&lt;/span&gt;&lt;/div&gt;&lt;div&gt;&lt;span style=&quot;font-size: 24px;&quot;&gt;3.本地应用程序/库特定的导入&lt;/span&gt;&lt;/div&gt;" style="text;html=1;align=center;verticalAlign=middle;whiteSpace=wrap;rounded=0;" vertex="1" parent="1">
          <mxGeometry x="135" y="285" width="400" height="30" as="geometry" />
        </mxCell>
        <mxCell id="wOgJz4khvBAr9w2sD9WK-7" value="" style="rounded=1;whiteSpace=wrap;html=1;" vertex="1" parent="1">
          <mxGeometry x="90" y="430" width="490" height="60" as="geometry" />
        </mxCell>
        <mxCell id="wOgJz4khvBAr9w2sD9WK-8" value="&lt;span style=&quot;font-size: 24px;&quot;&gt;全局变量与常量&lt;/span&gt;" style="text;html=1;align=center;verticalAlign=middle;whiteSpace=wrap;rounded=0;" vertex="1" parent="1">
          <mxGeometry x="237.5" y="445" width="195" height="30" as="geometry" />
        </mxCell>
        <mxCell id="wOgJz4khvBAr9w2sD9WK-9" value="" style="rounded=1;whiteSpace=wrap;html=1;" vertex="1" parent="1">
          <mxGeometry x="90" y="525" width="490" height="145" as="geometry" />
        </mxCell>
        <mxCell id="wOgJz4khvBAr9w2sD9WK-13" value="&lt;span style=&quot;font-size: 24px;&quot;&gt;实现功能逻辑的类与函数&lt;/span&gt;" style="text;html=1;align=center;verticalAlign=middle;whiteSpace=wrap;rounded=0;" vertex="1" parent="1">
          <mxGeometry x="160" y="600" width="350" height="30" as="geometry" />
        </mxCell>
      </root>
    </mxGraphModel>
  </diagram>
</mxfile>
